<?xml version="1.0" standalone="no"?>
<!DOCTYPE svg PUBLIC "-//W3C//DTD SVG 20010904//EN"
 "http://www.w3.org/TR/2001/REC-SVG-20010904/DTD/svg10.dtd">
<svg version="1.0" xmlns="http://www.w3.org/2000/svg"
 width="750.000000pt" height="750.000000pt" viewBox="0 0 750.000000 750.000000"
 preserveAspectRatio="xMidYMid meet">
<metadata>
Created by potrace 1.11, written by Peter Selinger 2001-2013
</metadata>
<g transform="translate(0.000000,750.000000) scale(0.100000,-0.100000)"
fill="#000000" stroke="none">
<path d="M1863 6620 c-331 -42 -671 -160 -908 -317 -133 -89 -319 -274 -403
-402 -149 -228 -237 -476 -278 -782 -19 -145 -15 -555 6 -624 38 -123 190
-163 280 -74 34 35 55 99 46 143 -18 86 -25 289 -16 411 32 390 155 683 385
911 136 134 298 230 521 307 734 255 1398 40 1819 -588 116 -173 182 -327 226
-534 30 -139 37 -399 15 -551 -51 -351 -196 -676 -413 -922 -209 -237 -267
-307 -321 -386 -116 -171 -178 -306 -214 -465 -17 -78 -21 -131 -22 -342 -2
-269 -11 -329 -63 -457 -89 -221 -280 -370 -551 -434 -142 -34 -325 -3 -457
77 -110 67 -233 190 -319 320 -58 88 -83 104 -161 104 -49 0 -70 -5 -91 -21
-60 -44 -84 -105 -70 -178 10 -50 112 -199 203 -296 163 -174 363 -291 573
-336 96 -20 296 -18 400 5 224 50 394 138 544 281 97 93 153 170 211 291 88
187 115 339 115 645 0 177 3 223 20 290 42 166 152 342 352 562 141 155 191
218 260 324 223 340 334 698 345 1110 10 352 -40 600 -177 883 -107 219 -224
379 -412 560 -263 253 -562 408 -913 471 -106 19 -425 27 -532 14z"/>
<path d="M5685 6446 c-59 -27 -117 -88 -136 -142 -20 -58 -16 -141 9 -198 15
-32 60 -87 135 -165 172 -178 279 -310 400 -497 561 -867 681 -1965 320 -2934
-144 -387 -359 -739 -651 -1066 -117 -131 -137 -173 -130 -269 14 -173 175
-275 344 -218 54 18 123 83 257 241 344 406 605 895 752 1405 91 317 133 607
142 962 10 426 -35 776 -153 1180 -174 599 -500 1149 -950 1599 -126 126 -225
156 -339 102z"/>
<path d="M1902 5709 c-572 -77 -932 -471 -932 -1019 0 -477 325 -884 636 -796
149 43 271 184 315 362 14 57 31 79 79 104 56 29 120 34 183 16 65 -19 84 -40
121 -130 39 -99 49 -180 31 -251 -22 -82 -67 -139 -176 -222 -161 -123 -246
-236 -284 -379 -26 -94 -22 -233 9 -329 29 -90 33 -172 11 -214 -20 -39 -68
-78 -111 -90 -78 -22 -166 50 -243 198 -61 118 -106 149 -198 138 -79 -9 -133
-65 -141 -146 -4 -43 1 -62 31 -125 169 -357 458 -490 747 -345 125 63 219
180 249 310 18 78 13 228 -11 315 -12 43 -23 104 -25 135 -8 96 42 168 193
282 225 169 323 394 284 647 -14 86 -54 208 -97 294 -102 202 -354 301 -605
237 -185 -48 -307 -152 -353 -301 -33 -107 -46 -137 -70 -160 -23 -21 -27 -22
-51 -9 -33 17 -106 119 -139 192 -107 243 -49 562 135 746 145 145 334 213
590 213 94 0 144 -5 204 -21 334 -88 532 -346 553 -718 7 -121 19 -157 67
-188 92 -61 228 -15 256 85 25 88 1 310 -50 460 -119 358 -396 606 -770 691
-101 23 -331 32 -438 18z"/>
<path d="M4969 5700 c-100 -30 -155 -149 -114 -246 8 -19 57 -81 109 -137 265
-286 428 -557 541 -902 82 -248 116 -465 116 -740 0 -601 -203 -1132 -610
-1594 -91 -103 -101 -122 -101 -187 0 -98 71 -175 170 -182 76 -6 114 13 191
96 634 677 875 1659 634 2578 -103 393 -285 742 -554 1064 -191 229 -274 283
-382 250z"/>
<path d="M4447 4816 c-93 -34 -143 -130 -117 -225 7 -29 32 -65 77 -114 169
-184 265 -373 309 -604 24 -130 15 -354 -19 -486 -45 -172 -143 -353 -261
-484 -25 -28 -53 -67 -61 -87 -39 -93 8 -211 98 -245 39 -15 111 -14 150 3 43
17 150 134 221 241 353 523 350 1207 -7 1729 -69 100 -196 240 -238 262 -43
22 -109 26 -152 10z"/>
</g>
</svg>
